<mxfile host="app.diagrams.net" modified="2023-09-20T15:14:59.425Z" agent="Mozilla/5.0 (Windows NT 10.0; Win64; x64) AppleWebKit/537.36 (KHTML, like Gecko) Chrome/116.0.0.0 Safari/537.36" etag="ZoEhANsmD2fLKdvzcKTl" version="21.7.5" type="device">
  <diagram name="Страница — 1" id="p74aC_AiE1ww4VM0M0up">
    <mxGraphModel dx="1434" dy="790" grid="1" gridSize="10" guides="1" tooltips="1" connect="1" arrows="1" fold="1" page="1" pageScale="1" pageWidth="827" pageHeight="1169" math="0" shadow="0">
      <root>
        <mxCell id="0" />
        <mxCell id="1" parent="0" />
        <mxCell id="blXj0rd2YdI-4aaO8nP3-27" value="Разработчик&lt;br&gt;" style="shape=umlActor;verticalLabelPosition=bottom;verticalAlign=top;html=1;outlineConnect=0;" vertex="1" parent="1">
          <mxGeometry x="384" y="220" width="30" height="60" as="geometry" />
        </mxCell>
        <mxCell id="blXj0rd2YdI-4aaO8nP3-28" value="Разработка&amp;nbsp; программы" style="ellipse;whiteSpace=wrap;html=1;" vertex="1" parent="1">
          <mxGeometry x="339" y="70" width="120" height="80" as="geometry" />
        </mxCell>
        <mxCell id="blXj0rd2YdI-4aaO8nP3-29" value="Тестировщик" style="shape=umlActor;verticalLabelPosition=bottom;verticalAlign=top;html=1;" vertex="1" parent="1">
          <mxGeometry x="580" y="300" width="30" height="60" as="geometry" />
        </mxCell>
        <mxCell id="blXj0rd2YdI-4aaO8nP3-32" value="Тестирование программы" style="ellipse;whiteSpace=wrap;html=1;" vertex="1" parent="1">
          <mxGeometry x="660" y="210" width="140" height="70" as="geometry" />
        </mxCell>
        <mxCell id="blXj0rd2YdI-4aaO8nP3-33" value="" style="endArrow=classic;html=1;rounded=0;entryX=0.5;entryY=1;entryDx=0;entryDy=0;exitX=0.5;exitY=0;exitDx=0;exitDy=0;exitPerimeter=0;" edge="1" parent="1" source="blXj0rd2YdI-4aaO8nP3-27" target="blXj0rd2YdI-4aaO8nP3-28">
          <mxGeometry width="50" height="50" relative="1" as="geometry">
            <mxPoint x="389" y="210" as="sourcePoint" />
            <mxPoint x="439" y="160" as="targetPoint" />
          </mxGeometry>
        </mxCell>
        <mxCell id="blXj0rd2YdI-4aaO8nP3-34" value="" style="endArrow=classic;html=1;rounded=0;exitX=0.75;exitY=0.1;exitDx=0;exitDy=0;exitPerimeter=0;entryX=0.065;entryY=0.755;entryDx=0;entryDy=0;entryPerimeter=0;" edge="1" parent="1" source="blXj0rd2YdI-4aaO8nP3-29" target="blXj0rd2YdI-4aaO8nP3-32">
          <mxGeometry width="50" height="50" relative="1" as="geometry">
            <mxPoint x="630" y="320" as="sourcePoint" />
            <mxPoint x="680" y="270" as="targetPoint" />
          </mxGeometry>
        </mxCell>
        <mxCell id="blXj0rd2YdI-4aaO8nP3-35" value="Создание отчёта о тестах" style="ellipse;whiteSpace=wrap;html=1;" vertex="1" parent="1">
          <mxGeometry x="680" y="320" width="120" height="80" as="geometry" />
        </mxCell>
        <mxCell id="blXj0rd2YdI-4aaO8nP3-36" value="" style="endArrow=classic;html=1;rounded=0;entryX=0.014;entryY=0.338;entryDx=0;entryDy=0;entryPerimeter=0;" edge="1" parent="1" source="blXj0rd2YdI-4aaO8nP3-29" target="blXj0rd2YdI-4aaO8nP3-35">
          <mxGeometry width="50" height="50" relative="1" as="geometry">
            <mxPoint x="630" y="385" as="sourcePoint" />
            <mxPoint x="680" y="335" as="targetPoint" />
          </mxGeometry>
        </mxCell>
        <mxCell id="blXj0rd2YdI-4aaO8nP3-37" value="Тим лид" style="shape=umlActor;verticalLabelPosition=bottom;verticalAlign=top;html=1;outlineConnect=0;" vertex="1" parent="1">
          <mxGeometry x="384" y="360" width="30" height="60" as="geometry" />
        </mxCell>
        <mxCell id="blXj0rd2YdI-4aaO8nP3-38" value="" style="endArrow=classic;startArrow=classic;html=1;rounded=0;entryX=0.361;entryY=0.714;entryDx=0;entryDy=0;entryPerimeter=0;" edge="1" parent="1" source="blXj0rd2YdI-4aaO8nP3-37" target="blXj0rd2YdI-4aaO8nP3-29">
          <mxGeometry width="50" height="50" relative="1" as="geometry">
            <mxPoint x="480" y="390" as="sourcePoint" />
            <mxPoint x="530" y="340" as="targetPoint" />
          </mxGeometry>
        </mxCell>
        <mxCell id="blXj0rd2YdI-4aaO8nP3-39" value="" style="endArrow=classic;startArrow=classic;html=1;rounded=0;exitX=0.5;exitY=0;exitDx=0;exitDy=0;exitPerimeter=0;" edge="1" parent="1" source="blXj0rd2YdI-4aaO8nP3-37" target="blXj0rd2YdI-4aaO8nP3-27">
          <mxGeometry width="50" height="50" relative="1" as="geometry">
            <mxPoint x="450" y="330" as="sourcePoint" />
            <mxPoint x="500" y="280" as="targetPoint" />
          </mxGeometry>
        </mxCell>
        <mxCell id="blXj0rd2YdI-4aaO8nP3-43" value="Разработка временной линии" style="ellipse;whiteSpace=wrap;html=1;" vertex="1" parent="1">
          <mxGeometry x="180" y="250" width="120" height="80" as="geometry" />
        </mxCell>
        <mxCell id="blXj0rd2YdI-4aaO8nP3-44" value="Проверка работы команды" style="ellipse;whiteSpace=wrap;html=1;" vertex="1" parent="1">
          <mxGeometry x="170" y="380" width="120" height="80" as="geometry" />
        </mxCell>
        <mxCell id="blXj0rd2YdI-4aaO8nP3-46" value="Дизайнер" style="shape=umlActor;verticalLabelPosition=bottom;verticalAlign=top;html=1;outlineConnect=0;" vertex="1" parent="1">
          <mxGeometry x="530" y="480" width="30" height="60" as="geometry" />
        </mxCell>
        <mxCell id="blXj0rd2YdI-4aaO8nP3-47" value="" style="endArrow=classic;startArrow=classic;html=1;rounded=0;exitX=1;exitY=1;exitDx=0;exitDy=0;exitPerimeter=0;" edge="1" parent="1" source="blXj0rd2YdI-4aaO8nP3-37" target="blXj0rd2YdI-4aaO8nP3-46">
          <mxGeometry width="50" height="50" relative="1" as="geometry">
            <mxPoint x="440" y="480" as="sourcePoint" />
            <mxPoint x="490" y="430" as="targetPoint" />
          </mxGeometry>
        </mxCell>
        <mxCell id="blXj0rd2YdI-4aaO8nP3-48" value="Дизайн интерфейса/сайта" style="ellipse;whiteSpace=wrap;html=1;" vertex="1" parent="1">
          <mxGeometry x="660" y="490" width="120" height="80" as="geometry" />
        </mxCell>
        <mxCell id="blXj0rd2YdI-4aaO8nP3-50" value="Аналитик" style="shape=umlActor;verticalLabelPosition=bottom;verticalAlign=top;html=1;outlineConnect=0;" vertex="1" parent="1">
          <mxGeometry x="354" y="530" width="30" height="60" as="geometry" />
        </mxCell>
        <mxCell id="blXj0rd2YdI-4aaO8nP3-51" value="" style="endArrow=classic;startArrow=classic;html=1;rounded=0;exitX=0.5;exitY=0;exitDx=0;exitDy=0;exitPerimeter=0;" edge="1" parent="1" source="blXj0rd2YdI-4aaO8nP3-50" target="blXj0rd2YdI-4aaO8nP3-37">
          <mxGeometry width="50" height="50" relative="1" as="geometry">
            <mxPoint x="344" y="510" as="sourcePoint" />
            <mxPoint x="394" y="460" as="targetPoint" />
          </mxGeometry>
        </mxCell>
        <mxCell id="blXj0rd2YdI-4aaO8nP3-52" value="" style="endArrow=classic;html=1;rounded=0;entryX=1;entryY=0.5;entryDx=0;entryDy=0;" edge="1" parent="1" source="blXj0rd2YdI-4aaO8nP3-37" target="blXj0rd2YdI-4aaO8nP3-44">
          <mxGeometry width="50" height="50" relative="1" as="geometry">
            <mxPoint x="304" y="445" as="sourcePoint" />
            <mxPoint x="354" y="395" as="targetPoint" />
          </mxGeometry>
        </mxCell>
        <mxCell id="blXj0rd2YdI-4aaO8nP3-53" value="" style="endArrow=classic;html=1;rounded=0;exitX=0;exitY=0.3333333333333333;exitDx=0;exitDy=0;exitPerimeter=0;entryX=0.979;entryY=0.702;entryDx=0;entryDy=0;entryPerimeter=0;" edge="1" parent="1" source="blXj0rd2YdI-4aaO8nP3-37" target="blXj0rd2YdI-4aaO8nP3-43">
          <mxGeometry width="50" height="50" relative="1" as="geometry">
            <mxPoint x="310" y="370" as="sourcePoint" />
            <mxPoint x="360" y="320" as="targetPoint" />
          </mxGeometry>
        </mxCell>
        <mxCell id="blXj0rd2YdI-4aaO8nP3-54" value="" style="endArrow=classic;html=1;rounded=0;entryX=0;entryY=0.5;entryDx=0;entryDy=0;" edge="1" parent="1" source="blXj0rd2YdI-4aaO8nP3-46" target="blXj0rd2YdI-4aaO8nP3-48">
          <mxGeometry width="50" height="50" relative="1" as="geometry">
            <mxPoint x="580" y="550" as="sourcePoint" />
            <mxPoint x="630" y="500" as="targetPoint" />
          </mxGeometry>
        </mxCell>
        <mxCell id="blXj0rd2YdI-4aaO8nP3-55" value="Изучение актуальности идей/задач" style="ellipse;whiteSpace=wrap;html=1;" vertex="1" parent="1">
          <mxGeometry x="200" y="650" width="120" height="80" as="geometry" />
        </mxCell>
        <mxCell id="blXj0rd2YdI-4aaO8nP3-56" value="Оценка эффективности решения задач" style="ellipse;whiteSpace=wrap;html=1;" vertex="1" parent="1">
          <mxGeometry x="400" y="650" width="120" height="80" as="geometry" />
        </mxCell>
        <mxCell id="blXj0rd2YdI-4aaO8nP3-58" value="" style="endArrow=classic;html=1;rounded=0;entryX=0.66;entryY=0.046;entryDx=0;entryDy=0;entryPerimeter=0;" edge="1" parent="1" source="blXj0rd2YdI-4aaO8nP3-50" target="blXj0rd2YdI-4aaO8nP3-55">
          <mxGeometry width="50" height="50" relative="1" as="geometry">
            <mxPoint x="300" y="590" as="sourcePoint" />
            <mxPoint x="320" y="530" as="targetPoint" />
          </mxGeometry>
        </mxCell>
        <mxCell id="blXj0rd2YdI-4aaO8nP3-59" value="" style="endArrow=classic;html=1;rounded=0;entryX=0.382;entryY=-0.017;entryDx=0;entryDy=0;entryPerimeter=0;" edge="1" parent="1" source="blXj0rd2YdI-4aaO8nP3-50" target="blXj0rd2YdI-4aaO8nP3-56">
          <mxGeometry width="50" height="50" relative="1" as="geometry">
            <mxPoint x="410" y="590" as="sourcePoint" />
            <mxPoint x="460" y="540" as="targetPoint" />
          </mxGeometry>
        </mxCell>
        <mxCell id="blXj0rd2YdI-4aaO8nP3-61" value="Пользователь" style="shape=umlActor;verticalLabelPosition=bottom;verticalAlign=top;html=1;outlineConnect=0;" vertex="1" parent="1">
          <mxGeometry x="384" y="1070" width="30" height="60" as="geometry" />
        </mxCell>
        <mxCell id="blXj0rd2YdI-4aaO8nP3-64" value="Интерфейс" style="ellipse;whiteSpace=wrap;html=1;" vertex="1" parent="1">
          <mxGeometry x="329" y="910" width="140" height="70" as="geometry" />
        </mxCell>
        <mxCell id="blXj0rd2YdI-4aaO8nP3-65" value="" style="endArrow=classic;html=1;rounded=0;entryX=0.5;entryY=1;entryDx=0;entryDy=0;exitX=0.5;exitY=0;exitDx=0;exitDy=0;exitPerimeter=0;" edge="1" parent="1" source="blXj0rd2YdI-4aaO8nP3-61" target="blXj0rd2YdI-4aaO8nP3-64">
          <mxGeometry width="50" height="50" relative="1" as="geometry">
            <mxPoint x="390" y="920" as="sourcePoint" />
            <mxPoint x="440" y="870" as="targetPoint" />
          </mxGeometry>
        </mxCell>
        <mxCell id="blXj0rd2YdI-4aaO8nP3-67" value="" style="endArrow=classic;html=1;rounded=0;entryX=0.436;entryY=0.981;entryDx=0;entryDy=0;entryPerimeter=0;" edge="1" parent="1" source="blXj0rd2YdI-4aaO8nP3-64" target="blXj0rd2YdI-4aaO8nP3-68">
          <mxGeometry width="50" height="50" relative="1" as="geometry">
            <mxPoint x="470" y="930" as="sourcePoint" />
            <mxPoint x="530" y="890" as="targetPoint" />
            <Array as="points" />
          </mxGeometry>
        </mxCell>
        <mxCell id="blXj0rd2YdI-4aaO8nP3-68" value="График предпологаемых действий криптовалют" style="ellipse;whiteSpace=wrap;html=1;" vertex="1" parent="1">
          <mxGeometry x="349" y="760" width="120" height="80" as="geometry" />
        </mxCell>
        <mxCell id="blXj0rd2YdI-4aaO8nP3-69" value="Анализ криптовалют" style="ellipse;whiteSpace=wrap;html=1;" vertex="1" parent="1">
          <mxGeometry x="100" y="850" width="120" height="80" as="geometry" />
        </mxCell>
        <mxCell id="blXj0rd2YdI-4aaO8nP3-70" value="" style="endArrow=classic;html=1;rounded=0;entryX=0.95;entryY=0.8;entryDx=0;entryDy=0;entryPerimeter=0;" edge="1" parent="1" source="blXj0rd2YdI-4aaO8nP3-64" target="blXj0rd2YdI-4aaO8nP3-69">
          <mxGeometry width="50" height="50" relative="1" as="geometry">
            <mxPoint x="304" y="970" as="sourcePoint" />
            <mxPoint x="354" y="920" as="targetPoint" />
            <Array as="points" />
          </mxGeometry>
        </mxCell>
        <mxCell id="blXj0rd2YdI-4aaO8nP3-71" value="Рекомендации инвестирования" style="ellipse;whiteSpace=wrap;html=1;" vertex="1" parent="1">
          <mxGeometry x="590" y="850" width="120" height="80" as="geometry" />
        </mxCell>
        <mxCell id="blXj0rd2YdI-4aaO8nP3-72" value="" style="endArrow=classic;html=1;rounded=0;entryX=0.037;entryY=0.657;entryDx=0;entryDy=0;exitX=1;exitY=0.5;exitDx=0;exitDy=0;entryPerimeter=0;" edge="1" parent="1" source="blXj0rd2YdI-4aaO8nP3-64" target="blXj0rd2YdI-4aaO8nP3-71">
          <mxGeometry width="50" height="50" relative="1" as="geometry">
            <mxPoint x="450" y="990" as="sourcePoint" />
            <mxPoint x="500" y="940" as="targetPoint" />
          </mxGeometry>
        </mxCell>
      </root>
    </mxGraphModel>
  </diagram>
</mxfile>
